<svg width="20" height="20" viewBox="0 0 20 20" fill="none" xmlns="http://www.w3.org/2000/svg">
<g clip-path="url(#clip0_2_578)">
<path d="M19.9683 10.1544C20.0327 9.99858 19.9969 9.81928 19.8775 9.70022L12.3775 2.20022C12.212 2.04034 11.9482 2.04495 11.7883 2.21045C11.6324 2.37194 11.6324 2.62791 11.7883 2.78936L18.5775 9.57854H0.41668C0.186563 9.57858 0 9.76514 0 9.99526C0 10.2254 0.186563 10.4119 0.41668 10.4119H18.5775L11.7892 17.2003C11.6237 17.3601 11.6191 17.6239 11.7789 17.7894C11.9388 17.9549 12.2026 17.9595 12.3681 17.7997C12.3716 17.7963 12.375 17.7929 12.3784 17.7894L19.8784 10.2894C19.9169 10.2507 19.9475 10.2049 19.9683 10.1544Z" fill="#2196F3"/>
<path d="M12.0834 17.912C11.8533 17.9124 11.6664 17.7262 11.666 17.4961C11.6658 17.3851 11.7099 17.2787 11.7884 17.2003L18.9943 9.99536L11.7884 2.79036C11.6286 2.62485 11.6332 2.36106 11.7987 2.20118C11.9602 2.04524 12.2161 2.04524 12.3776 2.20118L19.8776 9.70118C20.0402 9.86388 20.0402 10.1276 19.8776 10.2904L12.3776 17.7904C12.2995 17.8683 12.1938 17.912 12.0834 17.912Z" fill="white"/>
<path d="M19.5833 10.4119H0.41668C0.186563 10.4119 0 10.2254 0 9.99529C0 9.76518 0.186563 9.57861 0.41668 9.57861H19.5834C19.8135 9.57861 20 9.76518 20 9.99529C20 10.2254 19.8134 10.4119 19.5833 10.4119Z" fill="white"/>
</g>
<defs>
<clipPath id="clip0_2_578">
<rect width="20" height="20" fill="white"/>
</clipPath>
</defs>
</svg>
