<svg width="17" height="17" viewBox="0 0 17 17" fill="none" xmlns="http://www.w3.org/2000/svg">
<g clip-path="url(#clip0_2_301)">
<path d="M16.7923 15.7915L11.958 10.9571C12.8944 9.80044 13.4582 8.33065 13.4582 6.72984C13.4582 3.01963 10.4393 0.000732422 6.72908 0.000732422C3.01886 0.000732422 0 3.0196 0 6.72981C0 10.44 3.0189 13.4589 6.72911 13.4589C8.32992 13.4589 9.79971 12.8951 10.9564 11.9587L15.7907 16.793C15.9288 16.9311 16.1102 17.0006 16.2915 17.0006C16.4729 17.0006 16.6542 16.9311 16.7923 16.793C17.0693 16.5161 17.0693 16.0684 16.7923 15.7915ZM6.72911 12.0423C3.79946 12.0423 1.41666 9.65946 1.41666 6.72981C1.41666 3.80016 3.79946 1.41736 6.72911 1.41736C9.65876 1.41736 12.0416 3.80016 12.0416 6.72981C12.0416 9.65946 9.65873 12.0423 6.72911 12.0423Z" fill="white"/>
</g>
<defs>
<clipPath id="clip0_2_301">
<rect width="17" height="17" fill="white"/>
</clipPath>
</defs>
</svg>
