<svg width="33" height="33" viewBox="0 0 33 33" fill="none" xmlns="http://www.w3.org/2000/svg">
<g clip-path="url(#clip0_2_243)">
<path d="M32.6219 15.5877C32.6215 15.5873 32.6212 15.5868 32.6208 15.5864L25.8851 8.88331C25.3805 8.38115 24.5644 8.38302 24.0621 8.88769C23.5599 9.39229 23.5618 10.2085 24.0664 10.7107L28.5887 15.2111H1.28906C0.577113 15.2111 0 15.7882 0 16.5001C0 17.2121 0.577113 17.7892 1.28906 17.7892H28.5886L24.0665 22.2895C23.5619 22.7918 23.5599 23.6079 24.0622 24.1125C24.5644 24.6173 25.3807 24.619 25.8852 24.1169L32.6208 17.4138C32.6212 17.4134 32.6215 17.413 32.622 17.4126C33.1268 16.9087 33.1252 16.0899 32.6219 15.5877Z" fill="black"/>
</g>
<defs>
<clipPath id="clip0_2_243">
<rect width="33" height="33" fill="white"/>
</clipPath>
</defs>
</svg>
