<svg width="41" height="41" viewBox="0 0 41 41" fill="none" xmlns="http://www.w3.org/2000/svg">
<path d="M20.5 0C9.19561 0 0 9.19649 0 20.5C0 31.8035 9.19561 41 20.5 41C31.8044 41 41 31.8035 41 20.5C41 9.19649 31.8044 0 20.5 0ZM20.5 39.2917C10.1382 39.2917 1.70831 30.8618 1.70831 20.5C1.70831 10.1382 10.1382 1.70831 20.5 1.70831C30.8618 1.70831 39.2917 10.1382 39.2917 20.5C39.2917 30.8618 30.8618 39.2917 20.5 39.2917Z" fill="#FF4E4E"/>
<path d="M16.2292 8.54163H11.1042C9.69119 8.54163 8.54175 9.69107 8.54175 11.1041V16.2291C8.54175 17.6422 9.69119 18.7916 11.1042 18.7916H16.2292C17.6423 18.7916 18.7917 17.6422 18.7917 16.2291V11.1041C18.7917 9.69107 17.6423 8.54163 16.2292 8.54163ZM17.0834 16.2291C17.0834 16.7004 16.6996 17.0833 16.2292 17.0833H11.1042C10.6337 17.0833 10.25 16.7005 10.25 16.2291V11.1041C10.25 10.6329 10.6337 10.2499 11.1042 10.2499H16.2292C16.6996 10.2499 17.0834 10.6328 17.0834 11.1041V16.2291Z" fill="#FF4E4E"/>
<path d="M29.8958 8.54163H24.7708C23.3577 8.54163 22.2083 9.69107 22.2083 11.1041V16.2291C22.2083 17.6422 23.3577 18.7916 24.7708 18.7916H29.8958C31.3088 18.7916 32.4583 17.6422 32.4583 16.2291V11.1041C32.4583 9.69107 31.3088 8.54163 29.8958 8.54163ZM30.7499 16.2291C30.7499 16.7004 30.3662 17.0833 29.8958 17.0833H24.7708C24.3003 17.0833 23.9166 16.7005 23.9166 16.2291V11.1041C23.9166 10.6329 24.3003 10.2499 24.7708 10.2499H29.8958C30.3662 10.2499 30.7499 10.6328 30.7499 11.1041V16.2291Z" fill="#FF4E4E"/>
<path d="M16.2292 22.2083H11.1042C9.69119 22.2083 8.54175 23.3578 8.54175 24.7708V29.8958C8.54175 31.3089 9.69119 32.4583 11.1042 32.4583H16.2292C17.6423 32.4583 18.7917 31.3089 18.7917 29.8958V24.7708C18.7917 23.3578 17.6423 22.2083 16.2292 22.2083ZM17.0834 29.8958C17.0834 30.3671 16.6996 30.75 16.2292 30.75H11.1042C10.6337 30.75 10.25 30.3672 10.25 29.8958V24.7708C10.25 24.2996 10.6337 23.9166 11.1042 23.9166H16.2292C16.6996 23.9166 17.0834 24.2995 17.0834 24.7708V29.8958Z" fill="#FF4E4E"/>
<path d="M29.8958 22.2083H24.7708C23.3577 22.2083 22.2083 23.3578 22.2083 24.7708V29.8958C22.2083 31.3089 23.3577 32.4583 24.7708 32.4583H29.8958C31.3088 32.4583 32.4583 31.3089 32.4583 29.8958V24.7708C32.4583 23.3578 31.3088 22.2083 29.8958 22.2083ZM30.7499 29.8958C30.7499 30.3671 30.3662 30.75 29.8958 30.75H24.7708C24.3003 30.75 23.9166 30.3672 23.9166 29.8958V24.7708C23.9166 24.2996 24.3003 23.9166 24.7708 23.9166H29.8958C30.3662 23.9166 30.7499 24.2995 30.7499 24.7708V29.8958Z" fill="#FF4E4E"/>
</svg>
