<svg width="38" height="38" viewBox="0 0 38 38" fill="none" xmlns="http://www.w3.org/2000/svg">
<path d="M37.9827 26.917C37.9773 26.8897 37.9702 26.8636 37.9613 26.8369C37.9524 26.8125 37.9447 26.79 37.9334 26.7668C37.9221 26.7455 37.9091 26.7259 37.896 26.7051C37.8865 26.6914 37.8847 26.6754 37.8746 26.6623C37.8669 26.6522 37.8556 26.6487 37.8479 26.6392C37.8301 26.619 37.8117 26.6018 37.7915 26.584C37.7832 26.5762 37.779 26.5667 37.7707 26.5596L33.1822 22.9906C33.2232 22.55 33.2499 22.1053 33.2499 21.6635C33.2499 16.074 29.9979 11.0408 24.9398 8.71742V5.03617C24.9398 5.0237 24.9332 5.01361 24.9326 5.00114C24.9309 4.97501 24.9273 4.95067 24.9226 4.92514C24.9172 4.89783 24.9101 4.87229 24.9012 4.84558C24.8929 4.82123 24.8851 4.79867 24.8733 4.77611C24.8626 4.75414 24.8489 4.73454 24.8359 4.71436C24.8264 4.7007 24.8246 4.68467 24.8145 4.67161C24.8068 4.66151 24.7955 4.65795 24.7872 4.64845C24.77 4.62826 24.7516 4.61104 24.7314 4.59323C24.7231 4.58551 24.7189 4.57601 24.7106 4.56889L19.3645 0.411451C19.352 0.401951 19.3371 0.399576 19.3247 0.391857C19.2902 0.368701 19.2546 0.35267 19.2166 0.337232C19.181 0.323576 19.1483 0.30992 19.1115 0.302795C19.0747 0.296263 19.0379 0.29567 18.9999 0.29567C18.9625 0.29567 18.9257 0.296263 18.8883 0.303388C18.8515 0.310513 18.8188 0.32417 18.7832 0.33842C18.7458 0.353263 18.7101 0.369295 18.6757 0.391857C18.6626 0.400763 18.6472 0.402545 18.6353 0.412045L13.2892 4.56948C13.2791 4.5772 13.2756 4.58848 13.2661 4.5968C13.2476 4.61283 13.2304 4.62945 13.2144 4.64726C13.2055 4.65736 13.1936 4.66151 13.1853 4.6722C13.1746 4.68526 13.1728 4.70129 13.1639 4.71495C13.1503 4.73633 13.136 4.75651 13.1253 4.77908C13.1146 4.80045 13.1075 4.82183 13.0992 4.84498C13.0897 4.8717 13.0826 4.89783 13.0772 4.92573C13.0725 4.95126 13.0689 4.9762 13.0671 5.00233C13.0666 5.01479 13.06 5.02489 13.06 5.03795V8.71801C8.00186 11.0402 4.7499 16.0734 4.7499 21.6635C4.7499 22.1077 4.77661 22.5518 4.81699 22.9906L0.229676 26.5584C0.219582 26.5661 0.21602 26.5774 0.20652 26.5857C0.188113 26.6018 0.170895 26.6184 0.15427 26.6368C0.145957 26.6463 0.134082 26.6505 0.12577 26.6611C0.115676 26.6742 0.113301 26.6902 0.104395 26.7033C0.0907383 26.7253 0.0764883 26.7449 0.0658008 26.768C0.0551133 26.79 0.0479883 26.8114 0.0396758 26.8345C0.0301758 26.8612 0.0236445 26.8862 0.0183008 26.9135C0.012957 26.9396 0.00939453 26.9645 0.00761328 26.9913C0.00701953 27.0037 0.000488281 27.0138 0.000488281 27.0269V32.962C0.000488281 32.9745 0.00701953 32.9852 0.00761328 32.9976C0.010582 33.0392 0.0206758 33.0778 0.031957 33.1182C0.0420508 33.1538 0.0497695 33.1882 0.0658008 33.2209C0.081832 33.2535 0.103801 33.2809 0.126363 33.31C0.151301 33.3438 0.175645 33.3759 0.207113 33.4032C0.216613 33.4115 0.220176 33.4228 0.23027 33.4305L5.5764 37.5879C5.59955 37.6063 5.62686 37.6146 5.6524 37.6283C5.66783 37.6378 5.68089 37.6503 5.69693 37.6574C5.70761 37.6627 5.7183 37.6663 5.72958 37.6699C5.79846 37.6966 5.86911 37.7126 5.94036 37.7126H5.94096C5.94096 37.7126 5.94096 37.7126 5.94155 37.7126C6.0128 37.7126 6.08346 37.6966 6.15233 37.6699C6.16361 37.6657 6.1743 37.6621 6.18499 37.6574C6.20102 37.6503 6.21408 37.6378 6.22952 37.6283C6.25505 37.6146 6.28236 37.6063 6.30552 37.5879L11.3429 33.6704C13.6318 35.1334 16.2657 35.913 18.9999 35.913C21.7335 35.913 24.3686 35.1334 26.6569 33.6698L31.6949 37.5879C31.718 37.6063 31.7453 37.6146 31.7709 37.6283C31.7863 37.6378 31.7994 37.6503 31.8154 37.6574C31.8261 37.6627 31.8368 37.6663 31.8481 37.6699C31.9169 37.6966 31.9876 37.7126 32.0588 37.7126H32.0594C32.0594 37.7126 32.0594 37.7126 32.06 37.7126C32.1313 37.7126 32.2019 37.6966 32.2708 37.6699C32.2821 37.6657 32.2928 37.6621 32.3035 37.6574C32.3195 37.6503 32.3326 37.6378 32.348 37.6283C32.3735 37.6146 32.4008 37.6063 32.424 37.5879L37.7701 33.4305C37.7802 33.4228 37.7838 33.4115 37.7933 33.4032C37.8247 33.3759 37.8491 33.3432 37.874 33.31C37.896 33.2803 37.9186 33.253 37.9346 33.2209C37.9506 33.1888 37.9583 33.1538 37.9684 33.1182C37.9797 33.0778 37.9898 33.0392 37.9928 32.9976C37.9934 32.9852 37.9999 32.9751 37.9999 32.962V27.0275C37.9999 27.015 37.9934 27.0043 37.9928 26.9913C37.9904 26.9657 37.9874 26.942 37.9827 26.917ZM32.0594 23.6217L36.4377 27.0275L32.0594 30.432L27.6811 27.0263L32.0594 23.6217ZM27.3071 28.2405L31.4657 31.4753V35.9064L27.3071 32.6723V28.2405ZM32.6532 31.4753L36.8118 28.2411V32.6723L32.6532 35.9064V31.4753ZM18.9999 1.6322L23.3782 5.03676L18.9999 8.44192L14.6216 5.03736L18.9999 1.6322ZM14.2475 9.09326C14.2475 9.09267 14.2475 9.09148 14.2475 9.09089V6.24979L18.4061 9.48455V13.9163L14.2475 10.6815V9.09326ZM19.5936 9.48455L23.7523 6.25039V9.07723V9.10751V10.6827L19.5936 13.9163V9.48455ZM10.3187 27.0281L5.94036 30.4326L1.56205 27.0269L5.94036 23.6223L10.3187 27.0281ZM1.18799 28.2405L5.34661 31.4753V35.9064L1.18799 32.6723V28.2405ZM6.53411 31.4753L10.6927 28.2411V32.6723L6.53411 35.9064V31.4753ZM11.8802 32.607V27.0275C11.8802 27.015 11.8737 27.0043 11.8731 26.9913C11.8713 26.9657 11.8678 26.942 11.863 26.917C11.8577 26.8897 11.8506 26.8636 11.8416 26.8369C11.8327 26.8125 11.825 26.79 11.8137 26.7668C11.8025 26.7455 11.7894 26.7259 11.7763 26.7051C11.7668 26.6914 11.7651 26.6754 11.755 26.6623C11.7472 26.6522 11.736 26.6487 11.7276 26.6392C11.7104 26.619 11.692 26.6018 11.6718 26.584C11.6635 26.5762 11.6594 26.5667 11.6511 26.5596L6.30493 22.401C6.29246 22.3909 6.27702 22.3891 6.26455 22.3808C6.23071 22.3582 6.19627 22.3434 6.15886 22.328C6.12264 22.3137 6.0888 22.3 6.05139 22.2923C6.01933 22.2864 5.98846 22.2846 5.95521 22.284C5.94571 22.078 5.9374 21.8708 5.9374 21.6635C5.9374 16.723 8.70546 12.2508 13.06 10.0284V10.9713C13.06 10.9838 13.0666 10.9945 13.0677 11.0075C13.0701 11.0485 13.0802 11.0865 13.0915 11.1263C13.1016 11.1625 13.1093 11.1975 13.1259 11.2302C13.1414 11.2628 13.1633 11.2901 13.1859 11.3192C13.2108 11.3531 13.2352 11.3851 13.2666 11.4125C13.2761 11.4208 13.2797 11.432 13.2898 11.4398L18.6359 15.5984C18.6597 15.6168 18.6864 15.6251 18.7119 15.6388C18.7274 15.6483 18.7404 15.6607 18.7565 15.6679C18.7671 15.6732 18.7778 15.6768 18.7891 15.6803C18.858 15.707 18.9286 15.7231 18.9999 15.7231H19.0005H19.0011C19.0723 15.7231 19.143 15.707 19.2119 15.6803C19.2231 15.6762 19.2338 15.6726 19.2445 15.6679C19.2606 15.6607 19.2736 15.6483 19.2891 15.6388C19.3146 15.6251 19.3413 15.6168 19.3651 15.5984L24.7112 11.441C24.7213 11.4332 24.7248 11.422 24.7343 11.4136C24.7658 11.3863 24.7901 11.3537 24.8151 11.3204C24.8371 11.2907 24.859 11.2634 24.8756 11.2314C24.8911 11.1987 24.8994 11.1643 24.9095 11.1286C24.9208 11.0883 24.9309 11.0497 24.9338 11.0081C24.9344 10.9956 24.941 10.9855 24.941 10.9725V10.0284C29.2949 12.252 32.0624 16.723 32.0624 21.6635C32.0624 21.8702 32.0541 22.0774 32.0446 22.2846C32.0113 22.2852 31.9811 22.287 31.949 22.2929C31.9116 22.3006 31.8771 22.3137 31.8409 22.3285C31.8041 22.3434 31.7697 22.3588 31.7364 22.3808C31.7234 22.3897 31.7073 22.3921 31.6949 22.4016L26.3487 26.559C26.3386 26.5667 26.3351 26.578 26.3256 26.5863C26.3072 26.6024 26.29 26.619 26.2733 26.6374C26.265 26.6469 26.2531 26.651 26.2448 26.6617C26.2347 26.6748 26.2324 26.6908 26.2235 26.7039C26.2098 26.7259 26.1956 26.7455 26.1849 26.7686C26.1742 26.7906 26.1671 26.812 26.1587 26.8351C26.1492 26.8618 26.1427 26.8868 26.1374 26.9141C26.132 26.9402 26.1285 26.9651 26.1267 26.9919C26.1261 27.0043 26.1196 27.0144 26.1196 27.0275V32.6064C23.9999 33.9898 21.5465 34.726 18.9999 34.726C16.4533 34.726 14.0011 33.9898 11.8802 32.607Z" fill="#924705"/>
</svg>
