<svg width="42" height="42" viewBox="0 0 42 42" fill="none" xmlns="http://www.w3.org/2000/svg">
<g clip-path="url(#clip0_2_123)">
<path d="M41.9774 26.2847C41.8728 23.8783 41.4543 21.2104 40.8266 18.6994C40.1988 16.293 39.4141 14.0435 38.4725 12.3172C34.8106 5.88271 30.8348 6.87666 26.0744 8.13217C24.5573 8.49836 22.9356 8.91686 21.2616 9.0738H20.7384C19.0644 8.91686 17.4427 8.49836 15.9257 8.13217C11.1652 6.92897 7.18943 5.88271 3.52753 12.3695C2.5859 14.0958 1.7489 16.3453 1.17346 18.7517C0.545703 21.2627 0.1272 23.9306 0.0225747 26.337C-0.0820509 29.005 0.179513 30.9406 0.754954 32.3007C1.33039 33.5562 2.1674 34.3409 3.26597 34.6548C4.25991 34.9163 5.41079 34.8117 6.61399 34.2886C8.65419 33.4516 11.0083 31.6729 13.31 29.5281C14.9317 27.9587 17.9659 27.174 21 27.174C24.0342 27.174 27.0683 27.9587 28.69 29.5281C30.9918 31.6729 33.3458 33.4516 35.386 34.2886C36.5892 34.7594 37.7401 34.9163 38.7341 34.6548C39.7803 34.3409 40.6696 33.6085 41.2451 32.2484C41.8205 30.9406 42.0821 29.005 41.9774 26.2847ZM39.4664 31.516C39.1526 32.2484 38.7341 32.6669 38.2109 32.8238C37.6355 32.9808 36.9031 32.8761 36.0661 32.5623C34.2352 31.8299 32.0903 30.2082 29.9978 28.2203C28.0099 26.2324 24.505 25.2385 21 25.2385C17.4951 25.2385 13.9901 26.2324 11.9499 28.1157C9.80507 30.1036 7.66024 31.7776 5.88161 32.4576C5.0446 32.7715 4.31222 32.9285 3.73678 32.7192C3.21366 32.5623 2.79515 32.1438 2.48128 31.4114C2.06277 30.4174 1.85352 28.7957 1.95815 26.3894C2.06277 24.1399 2.42896 21.5766 3.05672 19.1702C3.63216 16.9207 4.36454 14.8282 5.25386 13.2588C8.13106 8.07985 11.4791 8.91686 15.4549 9.96312C17.0765 10.3816 18.7506 10.8001 20.5815 10.9571C20.6338 10.9571 20.6338 10.9571 20.6861 10.9571H21.2616C21.3139 10.9571 21.3139 10.9571 21.3662 10.9571C23.2495 10.8001 24.9235 10.3816 26.5452 9.96312C30.5209 8.96917 33.869 8.07985 36.7462 13.2588C37.6355 14.8282 38.3679 16.8684 38.9433 19.1702C39.5187 21.5766 39.9372 24.0876 40.0419 26.3894C40.1465 28.7957 39.9372 30.4174 39.4664 31.516Z" fill="#B0A600"/>
<path d="M16.1873 16.0837C15.6642 15.6129 15.0364 15.2467 14.3041 15.1944C14.2518 14.5143 13.9379 13.8343 13.4671 13.3634L13.4147 13.3111C12.8393 12.7357 12.1069 12.4218 11.2699 12.4218C10.4329 12.4218 9.64823 12.788 9.1251 13.3111C8.65428 13.7819 8.28809 14.462 8.23578 15.1944C7.5034 15.2467 6.87565 15.5606 6.35252 16.0314L6.30021 16.0837C5.72477 16.6592 5.41089 17.3915 5.41089 18.2285C5.41089 19.0655 5.77708 19.8502 6.30021 20.3734C6.82333 20.8965 7.45109 21.2104 8.23578 21.2627C8.28809 21.9951 8.60197 22.6751 9.1251 23.1459C9.70054 23.7214 10.4329 24.0353 11.2699 24.0353C12.1069 24.0353 12.8916 23.6691 13.4147 23.1459C13.8856 22.6228 14.2518 21.9951 14.3041 21.2627C15.0364 21.2104 15.7165 20.8965 16.1873 20.3734C16.7628 19.7979 17.0766 19.0655 17.0766 18.2285C17.0766 17.3915 16.7105 16.6068 16.1873 16.0837ZM14.8795 19.0132C14.6703 19.2225 14.4087 19.3271 14.0948 19.3271H13.3624C12.8393 19.3271 12.3685 19.7456 12.3685 20.321V21.0011C12.3685 21.315 12.2639 21.5766 12.0546 21.7858C11.8454 21.9951 11.5838 22.0997 11.2699 22.0997C10.956 22.0997 10.6945 21.9951 10.4852 21.7858C10.276 21.5766 10.1714 21.315 10.1714 21.0011V20.2687C10.1714 19.7456 9.75285 19.2748 9.17741 19.2748H8.44503C8.13115 19.2748 7.86959 19.1702 7.66034 18.9609C7.5034 18.804 7.34646 18.5424 7.34646 18.2285C7.34646 17.9147 7.45109 17.6531 7.66034 17.4438C7.66034 17.4438 7.66034 17.4438 7.71265 17.3915C7.9219 17.2346 8.18347 17.13 8.44503 17.13H9.17741C9.70054 17.13 10.1714 16.7115 10.1714 16.136V15.4036C10.1714 15.0898 10.276 14.8282 10.4852 14.619C10.6945 14.4097 10.956 14.3051 11.2699 14.3051C11.5838 14.3051 11.8454 14.4097 12.0546 14.619C12.0546 14.619 12.0546 14.619 12.1069 14.6713C12.2639 14.8805 12.3685 15.1421 12.3685 15.4036V16.136C12.3685 16.6592 12.787 17.13 13.3624 17.13H14.0948C14.4087 17.13 14.6703 17.2346 14.8795 17.4438C15.0888 17.6531 15.1934 17.9147 15.1934 18.2285C15.1934 18.5424 15.0888 18.804 14.8795 19.0132Z" fill="#B0A600"/>
<path d="M30.1024 16.3453C31.1136 16.3453 31.9334 15.5256 31.9334 14.5144C31.9334 13.5032 31.1136 12.6834 30.1024 12.6834C29.0912 12.6834 28.2715 13.5032 28.2715 14.5144C28.2715 15.5256 29.0912 16.3453 30.1024 16.3453Z" fill="#B0A600"/>
<path d="M30.1024 23.7737C31.1136 23.7737 31.9334 22.954 31.9334 21.9428C31.9334 20.9316 31.1136 20.1118 30.1024 20.1118C29.0912 20.1118 28.2715 20.9316 28.2715 21.9428C28.2715 22.954 29.0912 23.7737 30.1024 23.7737Z" fill="#B0A600"/>
<path d="M26.3883 20.0595C27.3995 20.0595 28.2193 19.2397 28.2193 18.2285C28.2193 17.2173 27.3995 16.3976 26.3883 16.3976C25.3771 16.3976 24.5574 17.2173 24.5574 18.2285C24.5574 19.2397 25.3771 20.0595 26.3883 20.0595Z" fill="#B0A600"/>
<path d="M33.8168 20.0595C34.828 20.0595 35.6477 19.2397 35.6477 18.2285C35.6477 17.2173 34.828 16.3976 33.8168 16.3976C32.8056 16.3976 31.9858 17.2173 31.9858 18.2285C31.9858 19.2397 32.8056 20.0595 33.8168 20.0595Z" fill="#B0A600"/>
</g>
<defs>
<clipPath id="clip0_2_123">
<rect width="42" height="42" fill="white"/>
</clipPath>
</defs>
</svg>
