<svg width="40" height="40" viewBox="0 0 40 40" fill="none" xmlns="http://www.w3.org/2000/svg">
<g clip-path="url(#clip0_2_212)">
<path d="M10.7003 25.1745C11.0738 24.9591 11.2017 24.4809 10.9862 24.1073C10.7705 23.7341 10.2926 23.6059 9.91905 23.8214C9.54552 24.0372 9.41734 24.5154 9.6331 24.8886C9.84856 25.2621 10.3268 25.3903 10.7003 25.1745Z" fill="#008646"/>
<path d="M7.49877 30.5667L11.4331 37.3816C12.2821 38.8537 14.1919 39.3988 15.7022 38.5257C17.1966 37.662 17.7103 35.7525 16.8457 34.2569L14.5019 30.1968L16.5317 29.0249C16.9052 28.8089 17.0334 28.3313 16.8176 27.9577L15.8017 26.1981C15.9228 26.1746 16.7193 26.0183 30.7657 23.2629C32.5021 23.1686 33.5425 21.2695 32.6654 19.7513L30.069 15.2542L31.7282 12.7411C31.8912 12.4939 31.9009 12.1762 31.7529 11.9198L30.1904 9.21353C30.0424 8.95718 29.7613 8.80704 29.4668 8.82443L26.4612 9.00479L23.5788 4.01212C23.1613 3.28885 22.4133 2.85092 21.5784 2.84055C21.5683 2.84024 21.5585 2.84024 21.5484 2.84024C20.7416 2.84024 20.0091 3.24185 19.5752 3.92087L9.36949 16.922L2.73467 20.7525C0.12511 22.2586 -0.778821 25.6064 0.73302 28.2229C2.11425 30.6155 5.02623 31.5567 7.49877 30.5667ZM15.4928 35.0384C15.9244 35.7849 15.6689 36.7401 14.9203 37.1725C14.1693 37.6068 13.2129 37.3401 12.7862 36.6006L8.87999 29.834L11.5863 28.2715C16.1072 36.1029 15.4202 34.913 15.4928 35.0384ZM13.7207 28.8434L12.9394 27.4902L14.2926 26.709L15.0738 28.0621L13.7207 28.8434ZM29.0787 10.4129L30.1584 12.283L29.1955 13.7411L27.3346 10.5175L29.0787 10.4129ZM20.8819 4.7775C21.0916 4.43448 21.4242 4.39908 21.5591 4.40274C21.6925 4.40427 22.0248 4.44577 22.2253 4.79306L31.3122 20.5325C31.6083 21.0449 31.2485 21.6891 30.6549 21.7038C30.5484 21.7062 30.4993 21.7254 30.2264 21.7764L20.6143 5.12753C20.816 4.86813 20.842 4.84311 20.8819 4.7775ZM19.5746 6.452L28.6056 22.0944L14.9759 24.7677L10.8316 17.5897L19.5746 6.452ZM2.08617 27.4417C1.74315 26.8481 1.56188 26.1743 1.56188 25.4925C1.56188 24.0991 2.31078 22.8015 3.51592 22.1057L9.60509 18.5901L13.5113 25.3558L7.42217 28.8717C5.55663 29.9484 3.16313 29.3069 2.08617 27.4417Z" fill="#008646"/>
<path d="M8.27995 25.6698C8.06419 25.2963 7.58629 25.1681 7.21275 25.3839L5.8596 26.1651C5.48668 26.3806 5.00786 26.2521 4.7924 25.8792C4.57664 25.5057 4.09874 25.3775 3.7252 25.5932C3.35167 25.809 3.2235 26.2869 3.43925 26.6604C4.08226 27.7743 5.51659 28.1671 6.64085 27.5183L7.994 26.737C8.36754 26.5213 8.49571 26.0437 8.27995 25.6698Z" fill="#008646"/>
<path d="M38.8388 4.51139L34.4855 6.93388C34.1086 7.14384 33.9728 7.61961 34.1828 7.9965C34.3921 8.37308 34.8676 8.5095 35.2454 8.29923L39.5984 5.87675C39.9756 5.66679 40.1111 5.19102 39.9012 4.81412C39.6915 4.43693 39.2157 4.30143 38.8388 4.51139Z" fill="#008646"/>
<path d="M38.3822 12.6028L35.3637 11.7941C34.9469 11.6824 34.5184 11.9296 34.4067 12.3465C34.295 12.7633 34.5425 13.1915 34.9594 13.3032L37.9782 14.1119C38.3975 14.2245 38.8238 13.9734 38.9349 13.5595C39.0466 13.1427 38.7991 12.7142 38.3822 12.6028Z" fill="#008646"/>
<path d="M30.7967 1.673L29.987 4.6918C29.8753 5.10867 30.1225 5.53683 30.5394 5.64883C30.956 5.76022 31.3844 5.51363 31.4964 5.09646L32.3058 2.07766C32.4175 1.66079 32.1703 1.23232 31.7534 1.12063C31.3368 1.00893 30.9084 1.25613 30.7967 1.673Z" fill="#008646"/>
</g>
<defs>
<clipPath id="clip0_2_212">
<rect width="40" height="40" fill="white"/>
</clipPath>
</defs>
</svg>
