<svg width="38" height="38" viewBox="0 0 38 38" fill="none" xmlns="http://www.w3.org/2000/svg">
<g clip-path="url(#clip0_2_191)">
<path d="M30.912 17.999H34.0627C34.1887 18.4684 34.4811 18.8761 34.8854 19.146C35.2896 19.4159 35.7782 19.5297 36.2601 19.4661C36.742 19.4026 37.1844 19.166 37.5049 18.8005C37.8253 18.435 38.002 17.9655 38.002 17.4794C38.002 16.9934 37.8253 16.5238 37.5049 16.1583C37.1844 15.7928 36.742 15.5563 36.2601 15.4927C35.7782 15.4292 35.2896 15.543 34.8854 15.8129C34.4811 16.0828 34.1887 16.4904 34.0627 16.9599H30.912V14.4436H33.2499C33.3325 14.4436 33.4139 14.4239 33.4873 14.3862C33.5608 14.3484 33.6242 14.2937 33.6723 14.2266L35.2933 11.9623C35.748 12.1322 36.2491 12.1309 36.703 11.9589C37.1569 11.7868 37.5329 11.4556 37.7608 11.027C37.9887 10.5983 38.0531 10.1015 37.9419 9.62889C37.8307 9.15633 37.5516 8.74028 37.1564 8.45823C36.7613 8.17618 36.2771 8.04734 35.7941 8.09572C35.311 8.1441 34.862 8.36639 34.5307 8.7212C34.1994 9.07601 34.0083 9.53916 33.993 10.0244C33.9777 10.5096 34.1394 10.9838 34.4478 11.3588L32.9827 13.4045H30.9117V11.4781C30.9117 11.3403 30.8569 11.2082 30.7595 11.1107C30.6621 11.0133 30.5299 10.9586 30.3922 10.9586C29.5886 10.9584 28.8056 10.7045 28.1549 10.233L31.0212 6.70021C31.4668 6.90006 31.9698 6.93108 32.4365 6.7875C32.9032 6.64392 33.3018 6.33553 33.5579 5.91981C33.8141 5.50409 33.9103 5.00941 33.8287 4.52797C33.7471 4.04654 33.4932 3.6112 33.1144 3.30311C32.7356 2.99502 32.2576 2.83519 31.7697 2.85342C31.2817 2.87166 30.817 3.0667 30.4622 3.40221C30.1074 3.73771 29.8868 4.19078 29.8413 4.67696C29.7959 5.16314 29.9288 5.64926 30.2152 6.04471L27.3982 9.51814C26.8512 8.83902 26.553 7.99318 26.5533 7.12117C26.5532 6.98341 26.4984 6.85131 26.401 6.7539C26.3036 6.65648 26.1715 6.60172 26.0337 6.60164H11.9657C11.828 6.60172 11.6959 6.65648 11.5984 6.7539C11.501 6.85131 11.4463 6.98341 11.4462 7.12117C11.4464 7.99318 11.1483 8.83902 10.6013 9.51814L7.78424 6.04441C8.06952 5.64996 8.20168 5.16526 8.1561 4.68059C8.11052 4.19593 7.89031 3.74436 7.53648 3.41002C7.18266 3.07568 6.71935 2.88137 6.23289 2.86328C5.74642 2.8452 5.26997 3.00457 4.8923 3.31172C4.51462 3.61887 4.26148 4.05283 4.18004 4.53278C4.0986 5.01272 4.19441 5.5059 4.44962 5.92044C4.70483 6.33498 5.10204 6.64261 5.56724 6.78601C6.03244 6.92942 6.53391 6.89881 6.97822 6.69991L9.84455 10.2327C9.19384 10.7042 8.41086 10.9581 7.6073 10.9583C7.46951 10.9583 7.33736 11.013 7.23993 11.1105C7.1425 11.2079 7.08777 11.34 7.08777 11.4778V13.4042H5.01706L3.55228 11.3585C3.86523 10.9801 4.02985 10.5009 4.01544 10.0101C4.00102 9.51933 3.80855 9.05056 3.47394 8.69126C3.13933 8.33195 2.68542 8.10664 2.19692 8.05738C1.70841 8.00811 1.21866 8.13825 0.819042 8.42351C0.419425 8.70877 0.137234 9.12967 0.0251156 9.60769C-0.0870024 10.0857 -0.0213889 10.5882 0.209715 11.0214C0.440818 11.4546 0.821627 11.7889 1.28109 11.962C1.74056 12.1351 2.24731 12.1351 2.70678 11.962L4.32772 14.2263C4.37577 14.2934 4.43913 14.3482 4.51254 14.386C4.58595 14.4237 4.66731 14.4435 4.74988 14.4436H7.08777V16.9599H3.93703C3.81101 16.4904 3.51864 16.0828 3.11439 15.8129C2.71013 15.543 2.22154 15.4292 1.73963 15.4927C1.25772 15.5563 0.815336 15.7928 0.494879 16.1583C0.174422 16.5238 -0.00226033 16.9934 -0.00226033 17.4794C-0.00226033 17.9655 0.174422 18.435 0.494879 18.8005C0.815336 19.166 1.25772 19.4026 1.73963 19.4661C2.22154 19.5297 2.71013 19.4159 3.11439 19.146C3.51864 18.8761 3.81101 18.4684 3.93703 17.999H7.08777V20.9276C7.08777 21.058 7.09519 21.1871 7.09964 21.3168H4.52722C4.43088 21.3169 4.33645 21.3437 4.25446 21.3943C4.17247 21.4449 4.10615 21.5172 4.06291 21.6033L2.40753 24.9019C1.92873 24.801 1.42957 24.8776 1.00312 25.1176C0.576664 25.3575 0.252028 25.7444 0.0897413 26.206C-0.0725456 26.6676 -0.061406 27.1725 0.121083 27.6265C0.303572 28.0805 0.644954 28.4527 1.08158 28.6736C1.5182 28.8945 2.02025 28.9491 2.49414 28.8271C2.96802 28.7052 3.38138 28.415 3.65714 28.0108C3.9329 27.6066 4.05224 27.1159 3.99291 26.6302C3.93358 26.1445 3.69963 25.6969 3.33467 25.371L4.84785 22.3547H7.18425C7.49552 24.7145 8.57305 26.9068 10.2513 28.5947L6.88292 31.4768C6.47985 31.199 5.98949 31.0772 5.50327 31.1342C5.01705 31.1913 4.56817 31.4232 4.24033 31.7867C3.91248 32.1503 3.72805 32.6207 3.72143 33.1102C3.71481 33.5997 3.88645 34.0749 4.20434 34.4472C4.52223 34.8195 4.96468 35.0635 5.44918 35.1336C5.93367 35.2038 6.42715 35.0953 6.83759 34.8285C7.24802 34.5616 7.54741 34.1546 7.6799 33.6834C7.8124 33.2121 7.76898 32.7087 7.55772 32.2671L11.0273 29.2983C11.2862 29.513 11.5528 29.7202 11.8336 29.9117L18.7072 34.6023C18.7936 34.6606 18.8956 34.6918 18.9999 34.6918C19.1042 34.6918 19.2061 34.6606 19.2926 34.6023L26.1661 29.9117C26.447 29.7202 26.7136 29.513 26.9725 29.2983L30.442 32.2671C30.2331 32.7058 30.1908 33.2055 30.323 33.6731C30.4551 34.1407 30.7527 34.5444 31.1604 34.8088C31.568 35.0733 32.0579 35.1806 32.5388 35.1108C33.0196 35.0409 33.4587 34.7987 33.7743 34.4291C34.0898 34.0596 34.2603 33.588 34.2539 33.1021C34.2476 32.6162 34.0648 32.1492 33.7397 31.788C33.4147 31.4269 32.9694 31.1962 32.4868 31.1389C32.0043 31.0817 31.5174 31.2017 31.1168 31.4768L27.7485 28.5947C29.4267 26.9068 30.5042 24.7145 30.8155 22.3547H33.1516L34.6657 25.3698C34.3082 25.6917 34.0799 26.1325 34.0231 26.6102C33.9662 27.0878 34.0848 27.5699 34.3567 27.9667C34.6287 28.3635 35.0354 28.6481 35.5014 28.7674C35.9674 28.8868 36.4609 28.8329 36.8901 28.6158C37.3194 28.3986 37.6551 28.033 37.835 27.5868C38.0149 27.1407 38.0266 26.6444 37.868 26.1903C37.7094 25.7361 37.3913 25.355 36.9728 25.1178C36.5543 24.8806 36.0639 24.8035 35.5928 24.9007L33.9374 21.6021C33.8942 21.5161 33.8279 21.4437 33.7459 21.3931C33.6639 21.3425 33.5695 21.3157 33.4731 21.3157H30.9007C30.9051 21.1859 30.9126 21.0568 30.9126 20.9265L30.912 17.999ZM35.996 16.5146C36.1868 16.5146 36.3733 16.5712 36.532 16.6772C36.6907 16.7832 36.8143 16.9339 36.8874 17.1102C36.9604 17.2865 36.9795 17.4805 36.9423 17.6677C36.905 17.8548 36.8131 18.0268 36.6782 18.1617C36.5433 18.2966 36.3714 18.3885 36.1842 18.4257C35.997 18.463 35.803 18.4439 35.6267 18.3708C35.4504 18.2978 35.2997 18.1741 35.1937 18.0155C35.0877 17.8568 35.0311 17.6703 35.0311 17.4794C35.0314 17.2236 35.1332 16.9784 35.3141 16.7975C35.4949 16.6167 35.7402 16.5149 35.996 16.5146ZM35.996 9.12241C36.1868 9.12241 36.3733 9.179 36.532 9.28501C36.6907 9.39103 36.8143 9.54172 36.8874 9.71802C36.9604 9.89432 36.9795 10.0883 36.9423 10.2755C36.905 10.4626 36.8131 10.6346 36.6782 10.7695C36.5433 10.9044 36.3714 10.9963 36.1842 11.0336C35.997 11.0708 35.803 11.0517 35.6267 10.9787C35.4504 10.9056 35.2997 10.782 35.1937 10.6233C35.0877 10.4646 35.0311 10.2781 35.0311 10.0873C35.0317 9.83161 35.1335 9.58661 35.3144 9.40593C35.4952 9.22524 35.7403 9.12361 35.996 9.1233V9.12241ZM1.03894 10.0881C1.03894 9.89731 1.09553 9.71077 1.20155 9.5521C1.30756 9.39344 1.45825 9.26977 1.63455 9.19674C1.81086 9.12372 2.00485 9.10461 2.19202 9.14184C2.37918 9.17907 2.55109 9.27096 2.68603 9.4059C2.82097 9.54083 2.91286 9.71275 2.95009 9.89991C2.98732 10.0871 2.96821 10.2811 2.89518 10.4574C2.82216 10.6337 2.69849 10.7844 2.53982 10.8904C2.38115 10.9964 2.19461 11.053 2.00378 11.053C1.74799 11.0527 1.50276 10.9509 1.32188 10.77C1.14101 10.5892 1.03925 10.3439 1.03894 10.0881ZM2.00378 18.4443C1.81296 18.4443 1.62641 18.3877 1.46775 18.2817C1.30908 18.1757 1.18541 18.025 1.11238 17.8487C1.03936 17.6724 1.02025 17.4784 1.05748 17.2912C1.09471 17.104 1.1866 16.9321 1.32154 16.7972C1.45647 16.6623 1.62839 16.5704 1.81555 16.5331C2.00271 16.4959 2.19671 16.515 2.37301 16.588C2.54931 16.6611 2.7 16.7847 2.80602 16.9434C2.91204 17.1021 2.96863 17.2886 2.96863 17.4794C2.96831 17.7352 2.86656 17.9805 2.68568 18.1613C2.50481 18.3422 2.25958 18.444 2.00378 18.4443ZM2.00378 27.8297C1.81296 27.8297 1.62641 27.7731 1.46775 27.6671C1.30908 27.5611 1.18541 27.4104 1.11238 27.2341C1.03936 27.0578 1.02025 26.8638 1.05748 26.6766C1.09471 26.4895 1.1866 26.3175 1.32154 26.1826C1.45647 26.0477 1.62839 25.9558 1.81555 25.9185C2.00271 25.8813 2.19671 25.9004 2.37301 25.9734C2.54931 26.0465 2.7 26.1701 2.80602 26.3288C2.91204 26.4875 2.96863 26.674 2.96863 26.8648C2.96831 27.1206 2.86656 27.3659 2.68568 27.5467C2.50481 27.7276 2.25958 27.8294 2.00378 27.8297ZM36.9608 26.8648C36.9608 27.0557 36.9042 27.2422 36.7982 27.4009C36.6922 27.5596 36.5415 27.6832 36.3652 27.7562C36.1889 27.8293 35.9949 27.8484 35.8077 27.8112C35.6206 27.7739 35.4487 27.682 35.3137 27.5471C35.1788 27.4122 35.0869 27.2402 35.0497 27.0531C35.0124 26.8659 35.0315 26.6719 35.1046 26.4956C35.1776 26.3193 35.3013 26.1686 35.4599 26.0626C35.6186 25.9566 35.8051 25.9 35.996 25.9C36.2518 25.9003 36.497 26.0021 36.6779 26.1829C36.8587 26.3638 36.9605 26.6091 36.9608 26.8648ZM31.8367 3.90631C32.0276 3.90631 32.2141 3.9629 32.3728 4.06892C32.5314 4.17494 32.6551 4.32563 32.7281 4.50193C32.8012 4.67823 32.8203 4.87223 32.783 5.05939C32.7458 5.24655 32.6539 5.41847 32.519 5.55341C32.3841 5.68834 32.2121 5.78023 32.025 5.81746C31.8378 5.85469 31.6438 5.83558 31.4675 5.76256C31.2912 5.68953 31.1405 5.56586 31.0345 5.4072C30.9285 5.24853 30.8719 5.06199 30.8719 4.87116C30.8722 4.61536 30.974 4.37013 31.1548 4.18926C31.3357 4.00838 31.5809 3.90663 31.8367 3.90631ZM5.19816 4.87116C5.19816 4.68033 5.25475 4.49379 5.36076 4.33512C5.46678 4.17645 5.61747 4.05279 5.79377 3.97976C5.97007 3.90673 6.16407 3.88763 6.35123 3.92485C6.53839 3.96208 6.71031 4.05398 6.84525 4.18891C6.98018 4.32385 7.07208 4.49577 7.10931 4.68293C7.14653 4.87009 7.12743 5.06409 7.0544 5.24039C6.98137 5.41669 6.85771 5.56738 6.69904 5.6734C6.54037 5.77942 6.35383 5.836 6.163 5.836C5.90721 5.83569 5.66198 5.73393 5.4811 5.55306C5.30023 5.37218 5.19847 5.12695 5.19816 4.87116ZM5.75124 34.0938C5.56041 34.0938 5.37387 34.0372 5.2152 33.9311C5.05653 33.8251 4.93286 33.6744 4.85984 33.4981C4.78681 33.3218 4.7677 33.1278 4.80493 32.9407C4.84216 32.7535 4.93405 32.5816 5.06899 32.4467C5.20392 32.3117 5.37584 32.2198 5.563 32.1826C5.75017 32.1454 5.94416 32.1645 6.12047 32.2375C6.29677 32.3105 6.44745 32.4342 6.55347 32.5929C6.65949 32.7515 6.71608 32.9381 6.71608 33.1289C6.71576 33.3847 6.61401 33.6299 6.43314 33.8108C6.25226 33.9917 6.00703 34.0934 5.75124 34.0938ZM25.5804 29.0537L18.9999 33.5436L12.4193 29.0537C11.096 28.1514 10.0132 26.9394 9.2651 25.5231C8.51699 24.1069 8.12624 22.5293 8.12683 20.9276V11.97C9.23107 11.8415 10.2595 11.3438 11.0456 10.5577C11.8317 9.77164 12.3294 8.74316 12.4579 7.63892H25.5418C25.6704 8.74316 26.168 9.77164 26.9541 10.5577C27.7402 11.3438 28.7687 11.8415 29.8729 11.97V20.9276C29.8735 22.5293 29.4828 24.1069 28.7346 25.5231C27.9865 26.9394 26.9037 28.1514 25.5804 29.0537ZM33.2134 33.1289C33.2134 33.3197 33.1568 33.5063 33.0507 33.6649C32.9447 33.8236 32.794 33.9473 32.6177 34.0203C32.4414 34.0933 32.2474 34.1124 32.0603 34.0752C31.8731 34.038 31.7012 33.9461 31.5663 33.8112C31.4313 33.6762 31.3394 33.5043 31.3022 33.3171C31.265 33.13 31.2841 32.936 31.3571 32.7597C31.4301 32.5834 31.5538 32.4327 31.7125 32.3267C31.8711 32.2207 32.0577 32.1641 32.2485 32.1641C32.5043 32.1644 32.7495 32.2661 32.9304 32.447C33.1113 32.6279 33.213 32.8731 33.2134 33.1289Z" fill="black"/>
<path d="M27.9434 13.8181C27.9434 13.7175 27.9143 13.6192 27.8595 13.5349C27.8048 13.4506 27.7268 13.3839 27.6349 13.3431C26.0901 12.6569 24.8549 11.4218 24.1686 9.87704C24.1278 9.78518 24.0611 9.70715 23.9768 9.6524C23.8925 9.59765 23.7941 9.56853 23.6936 9.56859H14.3061C14.2056 9.56853 14.1072 9.59765 14.0229 9.6524C13.9386 9.70715 13.872 9.78518 13.8311 9.87704C13.145 11.4219 11.9099 12.6571 10.3651 13.3434C10.2733 13.3842 10.1952 13.4509 10.1405 13.5352C10.0858 13.6195 10.0566 13.7178 10.0566 13.8184V20.9276C10.056 22.2154 10.3701 23.4838 10.9716 24.6225C11.5731 25.7612 12.4438 26.7356 13.5078 27.4609L18.7079 31.0092C18.7944 31.0675 18.8963 31.0987 19.0006 31.0987C19.1049 31.0987 19.2068 31.0675 19.2933 31.0092L24.4922 27.4609C25.5559 26.7357 26.4262 25.7616 27.0276 24.6233C27.629 23.485 27.9431 22.2171 27.9428 20.9297L27.9434 13.8181ZM26.9043 20.9276C26.9045 22.0457 26.6316 23.147 26.1092 24.1356C25.5869 25.1242 24.8309 25.9702 23.9071 26.6L19 29.9497L14.0927 26.6C13.1689 25.9701 12.413 25.1241 11.8907 24.1355C11.3684 23.1469 11.0955 22.0457 11.0957 20.9276V14.1476C12.6302 13.3852 13.8734 12.1421 14.6359 10.6077H23.3641C24.1266 12.1421 25.3698 13.3852 26.9043 14.1476V20.9276Z" fill="black"/>
</g>
<defs>
<clipPath id="clip0_2_191">
<rect width="38" height="38" fill="white"/>
</clipPath>
</defs>
</svg>
