<svg width="41" height="41" viewBox="0 0 41 41" fill="none" xmlns="http://www.w3.org/2000/svg">
<g clip-path="url(#clip0_2_146)">
<path d="M21.5138 19.4871C21.2007 19.174 20.6938 19.174 20.3807 19.4871C20.0684 19.7994 20.0684 20.3063 20.3807 20.6194C20.6938 20.9317 21.2007 20.9317 21.5138 20.6194C21.8261 20.3063 21.8261 19.7994 21.5138 19.4871Z" fill="#0073C6"/>
<path d="M31.7056 9.29467C30.1409 7.73002 27.6078 7.72994 26.043 9.29467C24.4824 10.8553 24.4823 13.3954 26.0433 14.9573C27.6045 16.5175 30.1446 16.5182 31.7056 14.9571C33.2702 13.3926 33.2705 10.8595 31.7056 9.29467ZM30.5731 13.8246C29.6368 14.761 28.1126 14.761 27.1757 13.8248C26.2392 12.8877 26.2391 11.3635 27.1756 10.4271C28.1143 9.48838 29.6342 9.48822 30.5731 10.4271C31.5119 11.3658 31.512 12.8858 30.5731 13.8246Z" fill="#0073C6"/>
<path d="M40.7653 0.234495C40.6081 0.0773021 40.3935 -0.00790083 40.1704 0.000507359C39.9893 0.00699368 35.6783 0.180282 30.5537 1.99157C26.4473 3.44146 23.0245 5.51732 20.3804 8.1615C19.7879 8.75399 19.2114 9.38228 18.6597 10.035C16.0453 8.49606 13.9503 8.97861 12.6259 9.68738C9.57648 11.3194 7.68896 15.7506 7.68896 18.9201C7.68921 19.2439 7.88436 19.5359 8.18353 19.6598C8.28258 19.7009 8.38668 19.7208 8.48982 19.7208C8.69827 19.7208 8.90303 19.6394 9.05622 19.4863C10.6644 17.8781 12.648 17.9787 13.296 18.0639L13.5765 18.3443C13.0246 19.6576 12.58 20.9635 12.2539 22.2336C12.1362 22.6932 12.1759 23.1796 12.3509 23.6246C11.5799 23.9799 10.836 24.5016 10.1884 25.1492C8.12707 27.2106 7.7085 32.2342 7.69169 32.4471C7.67327 32.6807 7.75799 32.9106 7.92367 33.0763C8.07446 33.227 8.27842 33.3109 8.48982 33.3109C8.51081 33.3109 8.53187 33.3101 8.55293 33.3084C8.76577 33.2916 13.7895 32.8731 15.8508 30.8118C16.4983 30.1644 17.0199 29.4206 17.3752 28.6498C17.8462 28.835 18.331 28.8578 18.767 28.7461C20.0365 28.4201 21.3423 27.9757 22.6557 27.4237L22.9361 27.7041C23.0213 28.3522 23.1218 30.3358 21.5137 31.9439C21.2848 32.1729 21.2162 32.5173 21.3402 32.8165C21.4641 33.1157 21.756 33.3108 22.0799 33.3108C25.2494 33.3108 29.6805 31.4233 31.3125 28.3738C32.0213 27.0496 32.5038 24.9546 30.9649 22.3401C31.6173 21.7887 32.2457 21.2121 32.8384 20.6194C35.4826 17.9752 37.5584 14.5524 39.0083 10.4464C40.8196 5.32153 40.9928 1.01045 40.9993 0.829475C41.0073 0.607258 40.9225 0.391768 40.7653 0.234495ZM9.47935 17.1977C9.97679 14.7903 11.4216 12.1486 13.3819 11.0994C14.6919 10.3984 16.1238 10.4671 17.6463 11.3005C16.3492 13.0063 15.2217 14.8441 14.2818 16.7848C14.2699 16.7774 14.1257 16.5962 13.8579 16.5358C13.7478 16.5109 11.629 16.0552 9.47935 17.1977ZM14.7184 29.6792C13.6173 30.7803 11.0344 31.361 9.40183 31.5982C9.63902 29.9655 10.2198 27.3827 11.3208 26.2817C11.9374 25.6651 12.6524 25.1976 13.371 24.9343L16.0658 27.6291C15.8025 28.3477 15.3351 29.0626 14.7184 29.6792ZM18.3691 27.1947C18.1374 27.254 17.869 27.1669 17.6694 26.9676C16.6334 25.9317 16.2282 25.5264 16.101 25.3993C15.8678 25.1661 15.296 24.5943 14.0329 23.3311C13.8332 23.131 13.7461 22.8627 13.8052 22.6313C14.0617 21.6325 14.3972 20.6076 14.8051 19.5729L21.4271 26.195C20.3923 26.603 19.3676 26.9383 18.3691 27.1947ZM29.9007 27.6181C28.8515 29.5784 26.2099 31.0233 23.8026 31.5206C24.5701 30.0763 24.7393 28.2376 24.4589 27.1227C24.3938 26.8637 24.2248 26.7335 24.2154 26.7182C26.1559 25.7783 27.9936 24.6508 29.6996 23.3537C30.533 24.8763 30.6016 26.3084 29.9007 27.6181ZM31.7061 19.4869C30.9845 20.2084 30.2075 20.9055 29.3967 21.5587C27.4474 23.1282 25.302 24.4577 23.013 25.516L15.4841 17.9872C16.5424 15.6981 17.8718 13.5527 19.4412 11.6036C20.095 10.7922 20.792 10.0151 21.5132 9.29396C23.8855 6.92157 26.9472 5.03349 30.6158 3.67441L37.3257 10.3843C35.9667 14.0528 34.0787 17.1145 31.7061 19.4869ZM37.9018 8.69537L32.3047 3.09824C35.3541 2.15108 38.007 1.79642 39.3312 1.66893C39.2037 2.99334 38.8489 5.64625 37.9018 8.69537Z" fill="#0073C6"/>
<path d="M19.2485 33.0761C18.9356 32.7634 18.4286 32.7636 18.116 33.0763L15.8514 35.3417C15.5387 35.6545 15.5388 36.1615 15.8515 36.4742C16.1644 36.7868 16.6714 36.7868 16.9841 36.474L19.2487 34.2086C19.5613 33.8958 19.5612 33.3887 19.2485 33.0761Z" fill="#0073C6"/>
<path d="M7.92402 21.7516C7.6114 21.4389 7.10442 21.4389 6.79156 21.7515L4.52615 24.0161C4.21337 24.3287 4.21329 24.8358 4.52591 25.1485C4.83846 25.4612 5.34543 25.4615 5.65838 25.1487L7.92378 22.8841C8.23657 22.5715 8.23665 22.0644 7.92402 21.7516Z" fill="#0073C6"/>
<path d="M13.5862 34.2093C13.2737 33.8966 12.7665 33.8966 12.4538 34.2093L7.02928 39.6329C6.71649 39.9456 6.71649 40.4527 7.0292 40.7654C7.34174 41.0781 7.84887 41.0783 8.16166 40.7655L13.5861 35.3418C13.8989 35.0291 13.8989 34.522 13.5862 34.2093Z" fill="#0073C6"/>
<path d="M7.17997 34.2093C6.86735 33.8966 6.36021 33.8966 6.04751 34.2093L0.623026 39.6329C0.310242 39.9456 0.310242 40.4527 0.622946 40.7654C0.93549 41.0781 1.44262 41.0783 1.75541 40.7655L7.17989 35.3418C7.49267 35.0291 7.49267 34.522 7.17997 34.2093Z" fill="#0073C6"/>
<path d="M6.79066 27.4137C6.47804 27.1011 5.9709 27.1011 5.6582 27.4138L0.234518 32.8383C-0.0781861 33.1511 -0.0781861 33.658 0.234598 33.9708C0.547303 34.2835 1.05436 34.2835 1.36706 33.9707L6.79074 28.5463C7.10345 28.2335 7.10345 27.7265 6.79066 27.4137Z" fill="#0073C6"/>
<path d="M24.911 16.0892C24.5982 15.7765 24.0913 15.7765 23.7785 16.0892L22.6461 17.2215C22.3334 17.5342 22.3334 18.0413 22.6461 18.354C22.9589 18.6668 23.4659 18.6668 23.7787 18.354L24.911 17.2217C25.2237 16.909 25.2237 16.402 24.911 16.0892Z" fill="#0073C6"/>
</g>
<defs>
<clipPath id="clip0_2_146">
<rect width="41" height="41" fill="white"/>
</clipPath>
</defs>
</svg>
